<?xml version="1.0" encoding="UTF-8"?>
<svg xmlns="http://www.w3.org/2000/svg" width="4.5" height="4.5" version="1.1" viewBox="0 0 4.5 4.5">
  <!-- Generator: Adobe Illustrator 29.8.2, SVG Export Plug-In . SVG Version: 2.1.1 Build 3)  -->
  <defs>
    <style>
      .st0 {
        stroke-linecap: round;
        stroke-width: .06px;
      }

      .st0, .st1 {
        stroke: #000;
      }

      .st0, .st1, .st2 {
        fill: none;
        stroke-miterlimit: 10;
      }

      .st3 {
        fill: #62ffc6;
      }

      .st4 {
        fill: #ffc8a3;
      }

      .st5 {
        fill: #59c7ff;
      }

      .st1 {
        stroke-width: .03px;
      }

      .st6 {
        fill: #ffefa3;
      }

      .st7 {
        fill: #ffdf57;
      }

      .st2 {
        stroke: #fff;
        stroke-width: .05px;
      }

      .st8 {
        fill: #b5e6ff;
      }

      .st9 {
        fill: #ff9c59;
      }

      .st10 {
        fill: #a3ffde;
      }
    </style>
  </defs>
  <g id="Layer_3">
    <rect x="-.087" y="-.065" width="4.65" height="4.65"/>
  </g>
  <g id="BG">
    <path class="st3" d="M2.25,5.22v-2.53h-.27c-.06,0-.12,0-.17-.01-.06,0-.12,0-.18-.01h-.03c-.01.08-.02.16-.03.23-.03.22-.04.4-.03.55,0,.15.01.27.02.37.02.1.04.19.05.26.02.07.04.13.05.18.02.05.04.09.05.13.02.04.03.07.04.1.02.04.03.06.04.09.01.02.02.04.03.06.01.02.02.04.03.06.01.01.02.03.03.04.01.02.02.04.03.05.01.02.02.04.03.06.02.01.03.03.04.05.01.02.02.03.04.05.01.02.02.04.04.05.01.02.03.04.04.06.02.02.03.04.05.05.01.02.03.04.05.06.01.02.03.03.05.05Z"/>
    <path class="st3" d="M3.9,3.68v-.25c0-.02-.01-.04-.01-.07,0-.02,0-.04-.01-.06,0-.02-.01-.05-.01-.07s-.01-.04-.01-.05c-.01-.02-.01-.04-.02-.06,0-.02-.01-.03-.01-.05-.01-.02-.01-.03-.02-.05,0-.02-.01-.03-.02-.05,0-.01-.01-.02-.01-.04-.01-.01-.01-.02-.02-.04-.01-.01-.01-.02-.02-.03,0-.02-.01-.03-.01-.04-.01-.01-.02-.02-.02-.03-.01-.01-.01-.02-.02-.03,0-.01-.01-.02-.01-.03-.01-.01-.02-.02-.02-.03-.01-.01-.01-.02-.02-.03,0,0-.01-.01-.01-.02q-.01-.01-.02-.02c0-.01-.01-.02-.01-.02-.01-.01-.01-.02-.02-.02,0-.01-.01-.02-.01-.02l-.02-.02q0-.01-.01-.02l-.01-.01q-.01-.01-.01-.02c-.01,0-.01-.01-.02-.01q0-.01-.01-.02s-.01,0-.01-.01c-.05.04-.09.07-.14.1-.05.02-.1.04-.15.06-.05.01-.1.03-.16.03-.04.01-.09.02-.13.02.01.08.02.16.03.23.03.22.04.4.03.55,0,.15-.01.27-.02.37-.02.1-.04.19-.05.26-.02.07-.04.13-.05.18-.02.05-.04.09-.05.13-.02.04-.03.07-.04.1-.02.04-.03.06-.04.09-.01.02-.02.04-.03.06-.01.02-.02.04-.03.06-.01.01-.02.03-.03.04-.01.02-.02.04-.03.05-.01.02-.02.04-.03.06-.02.01-.03.03-.04.05-.01.02-.02.03-.04.05-.01.02-.02.04-.04.05-.01.02-.03.04-.04.06-.02.02-.03.04-.05.05-.01.02-.03.04-.05.06-.01.02-.03.03-.05.05.06,0,.12,0,.18-.01.05,0,.11-.01.17-.02.06-.02.11-.03.17-.05.05-.02.1-.04.15-.06.06-.02.11-.05.15-.08.05-.02.1-.05.14-.08.04-.03.08-.07.12-.1.04-.03.08-.07.11-.1.03-.04.07-.07.1-.11.03-.04.05-.07.08-.11.02-.04.05-.08.07-.11.02-.04.04-.08.06-.11.01-.04.03-.08.04-.11.02-.04.03-.07.04-.11.01-.03.02-.07.03-.1.01-.04.01-.07.02-.1,0-.03.01-.06.01-.1.01-.03.01-.06.01-.08Z"/>
    <path class="st10" d="M2.25,5.22c-.02-.02-.04-.03-.05-.05-.02-.02-.04-.04-.05-.06-.02-.01-.03-.03-.05-.05-.01-.02-.03-.04-.04-.06-.02-.01-.03-.03-.04-.05-.02-.02-.03-.03-.04-.05-.01-.02-.02-.04-.04-.05-.01-.02-.02-.04-.03-.06-.01-.01-.02-.03-.03-.05-.01-.01-.02-.03-.03-.04-.01-.02-.02-.04-.03-.06-.01-.02-.02-.04-.03-.06-.01-.03-.02-.05-.04-.09-.01-.03-.02-.06-.04-.1-.01-.04-.03-.08-.05-.13-.01-.05-.03-.11-.05-.18-.01-.07-.03-.16-.05-.26-.01-.1-.02-.22-.02-.37-.01-.15,0-.33.03-.55.01-.07.02-.15.03-.23-.04,0-.09-.01-.13-.02-.06,0-.11-.02-.16-.03-.05-.02-.1-.04-.15-.06-.05-.03-.09-.06-.14-.1,0,.01-.01.01-.01.01q-.01.01-.01.02c-.01,0-.01.01-.02.01q0,.01-.01.02l-.01.01q-.01.01-.01.02l-.02.02s-.01.01-.01.02c-.01,0-.01.01-.02.02,0,0-.01.01-.01.02q-.01.01-.02.02c0,.01-.01.02-.01.02-.01.01-.01.02-.02.03,0,.01-.01.02-.02.03,0,.01-.01.02-.01.03-.01.01-.01.02-.02.03,0,.01-.01.02-.02.03,0,.01-.01.02-.01.04-.01.01-.01.02-.02.03-.01.02-.01.03-.02.04,0,.02-.01.03-.01.04-.01.02-.02.03-.02.05-.01.02-.01.03-.02.05,0,.02-.01.03-.01.05-.01.02-.01.04-.02.06,0,.01-.01.03-.01.05s-.01.05-.01.07c-.01.02-.01.04-.01.06,0,.03-.01.05-.01.07v.25c0,.02,0,.05.01.08,0,.04.01.07.01.1.01.03.01.06.02.1.01.03.02.07.03.1.01.04.02.07.04.11.01.03.03.07.04.11.02.03.04.07.06.11.02.03.05.07.07.11.03.04.05.07.08.11.03.04.07.07.1.11.03.03.07.07.11.1.04.03.08.07.12.1.04.03.09.06.14.08.04.03.09.06.15.08.05.02.1.04.15.06.06.02.11.03.17.05.06.01.12.02.17.02l.18.01Z"/>
    <path class="st10" d="M2.96,3.45c.01-.15,0-.33-.03-.55-.01-.07-.02-.15-.03-.23h-.03c-.06.01-.12.01-.18.01-.05.01-.11.01-.17.01h-.27v2.53c.02-.02.04-.03.05-.05.02-.02.04-.04.05-.06.02-.01.03-.03.05-.05.01-.02.03-.04.04-.06.02-.01.03-.03.04-.05.02-.02.03-.03.04-.05.01-.02.02-.04.04-.05.01-.02.02-.04.03-.06.01-.01.02-.03.03-.05.01-.01.02-.03.03-.04.01-.02.02-.04.03-.06.01-.02.02-.04.03-.06.01-.03.02-.05.04-.09.01-.03.02-.06.04-.1.01-.04.03-.08.05-.13.01-.05.03-.11.05-.18.01-.07.03-.16.05-.26.01-.1.02-.22.02-.37Z"/>
    <path class="st5" d="M2.25,2.69v-.6h-.1c-.06,0-.12,0-.19.01-.06,0-.12.01-.18.02-.05.01-.11.02-.16.03-.01,0-.03.01-.04.01.05.18.04.35.02.51h.03c.06.01.12.01.18.01.05.01.11.01.17.01h.27Z"/>
    <path class="st5" d="M3.48,2.46l-.01-.01-.01-.01-.01-.01-.01-.01-.01-.01c0-.01-.01-.01-.01-.01,0-.01-.01-.01-.01-.01l-.01-.01-.01-.01v-.01h-.01l-.01-.01-.01-.01c-.01,0-.01-.01-.01-.01h-.01v-.01h-.01v-.01h-.01v-.01h-.01c0-.01-.01-.01-.01-.01l-.01-.01h-.01v-.01h-.01v-.01h-.01v-.01h-.01c-.01,0-.02-.01-.03-.01-.02-.01-.05-.02-.08-.03-.04-.01-.07-.02-.12-.03-.03-.01-.06-.01-.1-.02-.05.18-.04.35-.02.51.04,0,.09-.01.13-.02.06,0,.11-.02.16-.03.05-.02.1-.04.15-.06.05-.03.09-.06.14-.1Z"/>
    <path class="st8" d="M2.92,2.16c-.01,0-.03-.01-.04-.01-.05-.01-.11-.02-.16-.03-.06-.01-.12-.02-.18-.02-.07-.01-.13-.01-.19-.01h-.1v.6h.27c.06,0,.12,0,.17-.01.06,0,.12,0,.18-.01h.03c-.02-.16-.03-.33.02-.51Z"/>
    <path class="st8" d="M1.58,2.16c-.04.01-.07.01-.1.02-.05.01-.08.02-.12.03-.03.01-.06.02-.08.03-.01,0-.02.01-.03.01h-.01v.01h-.01v.01h-.01v.01h-.01l-.01.01s-.01,0-.01.01h-.01v.01h-.01v.01h-.01v.01h-.01s0,.01-.01.01l-.01.01-.01.01h-.01v.01l-.01.01-.01.01s-.01,0-.01.01c0,0-.01,0-.01.01l-.01.01-.01.01-.01.01-.01.01-.01.01c.05.04.09.07.14.1.05.02.1.04.15.06.05.01.1.03.16.03.04.01.09.02.13.02.02-.16.03-.33-.02-.51Z"/>
    <path class="st4" d="M1.58,2.16c-.05-.18-.14-.36-.27-.54-.05.03-.09.07-.13.1-.05.05-.1.1-.14.16-.04.06-.07.12-.08.18-.02.06-.03.13-.03.19h.32c.01,0,.02-.01.03-.01.02-.01.05-.02.08-.03.04-.01.07-.02.12-.03.03-.01.06-.01.1-.02Z"/>
    <path class="st9" d="M2.25,2.09v-.75h-.14c-.09.01-.18.02-.27.04-.08.02-.17.05-.25.08-.08.03-.15.07-.22.12-.02.01-.04.03-.06.04.13.18.22.36.27.54.01,0,.03-.01.04-.01.05-.01.11-.02.16-.03.06-.01.12-.02.18-.02.07-.01.13-.01.19-.01h.1Z"/>
    <path class="st4" d="M3.19,1.62c-.02-.01-.04-.03-.06-.04-.07-.05-.14-.09-.22-.12-.08-.03-.17-.06-.25-.08-.09-.02-.18-.03-.27-.04h-.14v.75h.1c.06,0,.12,0,.19.01.06,0,.12.01.18.02.05.01.11.02.16.03.01,0,.03.01.04.01.05-.18.14-.36.27-.54Z"/>
    <path class="st9" d="M3.57,2.25c0-.06-.01-.13-.03-.19-.01-.06-.04-.12-.08-.18-.04-.06-.09-.11-.14-.16-.04-.03-.08-.07-.13-.1-.13.18-.22.36-.27.54.04.01.07.01.1.02.05.01.08.02.12.03.03.01.06.02.08.03.01,0,.02.01.03.01h.32Z"/>
    <path class="st7" d="M6.25,2.25V-1.69l-.36.36c-.29.3-.58.59-.86.89-.29.29-.57.59-.85.88-.28.3-.55.59-.78.88-.08.1-.15.2-.21.3.05.03.09.07.13.1.05.05.1.1.14.16.04.06.07.12.08.18.02.06.03.13.03.19h2.68Z"/>
    <path class="st6" d="M6.25-1.69v-.06H2.25V1.34h.14c.09.01.18.02.27.04.08.02.17.05.25.08.08.03.15.07.22.12.02.01.04.03.06.04.06-.1.13-.2.21-.3.23-.29.5-.58.78-.88.28-.29.56-.59.85-.88.28-.3.57-.59.86-.89l.36-.36Z"/>
    <path class="st7" d="M2.25,1.34V-1.75H-1.75v.06l.36.36c.29.3.58.59.86.89C-.24-.15.04.15.32.44c.28.3.55.59.78.88.08.1.15.2.21.3.02-.01.04-.03.06-.04.07-.05.14-.09.22-.12.08-.03.17-.06.25-.08.09-.02.18-.03.27-.04h.14Z"/>
    <path class="st6" d="M1.31,1.62c-.06-.1-.13-.2-.21-.3-.23-.29-.5-.58-.78-.88C.04.15-.24-.15-.53-.44c-.28-.3-.57-.59-.86-.89l-.36-.36v3.94H.93c0-.06.01-.13.03-.19.01-.06.04-.12.08-.18.04-.06.09-.11.14-.16.04-.03.08-.07.13-.1Z"/>
  </g>
  <g id="Layer_2">
    <path class="st2" d="M1.25,2.25h0s0,0,0,0,0,0,0,0c0,0,0,0,0,0s0,0,0,0c0,0,0,0,0,0,0,0,0,0-.001,0s0,0-.001,0c0,0,0,0-.001.001,0,0,0,0-.001.001,0,0-.001,0-.002.001,0,0-.001,0-.002.001,0,0-.001,0-.002.001s-.001.001-.002.002-.001.001-.002.002-.002.001-.002.002c0,0-.002.001-.003.002s-.002.001-.003.002-.002.001-.003.002-.002.002-.003.002c-.001,0-.002.002-.003.003s-.002.002-.003.003c-.001,0-.002.002-.004.003s-.002.002-.004.003-.003.002-.004.003-.003.002-.004.003-.003.002-.004.004c-.001.001-.003.003-.005.004s-.003.003-.005.004-.003.003-.005.004-.003.003-.005.004-.004.003-.005.005-.004.003-.006.005c-.002.002-.004.003-.006.005-.002.002-.004.004-.006.006-.002.002-.004.004-.006.006s-.004.004-.007.006c-.002.002-.005.004-.007.006-.002.002-.005.004-.007.007-.002.002-.005.005-.008.007-.003.002-.005.005-.008.008-.003.003-.005.005-.008.008-.003.003-.006.005-.009.008s-.006.006-.009.009-.006.006-.009.009-.006.006-.01.01c-.003.003-.007.007-.01.01s-.007.007-.01.011c-.003.004-.007.008-.011.011-.004.004-.007.008-.011.012-.004.004-.008.008-.011.013s-.008.009-.012.014c-.004.005-.008.009-.012.014-.004.005-.008.01-.013.015s-.009.01-.013.016c-.004.005-.009.011-.013.017s-.009.012-.014.018c-.005.006-.009.012-.014.019-.005.007-.01.013-.015.02s-.01.014-.015.021-.01.015-.015.023-.01.016-.016.024c-.005.008-.011.017-.016.026-.005.009-.011.018-.016.027-.006.009-.011.019-.017.029-.006.01-.011.02-.017.031-.006.011-.011.022-.017.033-.006.011-.011.023-.017.035-.006.012-.012.024-.017.037-.006.013-.011.026-.017.04-.006.014-.011.028-.017.042-.006.015-.011.03-.017.045-.005.016-.011.032-.016.048-.005.017-.01.034-.015.052s-.01.036-.014.055c-.005.019-.009.039-.013.059-.004.02-.008.041-.012.063-.004.022-.007.044-.01.067s-.005.047-.007.071-.003.05-.004.076c0,.026-.001.053,0,.08s.001.056.003.085c.002.029.005.059.008.09.004.031.008.062.014.094.006.032.013.065.021.099s.018.068.028.103c.011.035.023.07.037.106.014.036.03.072.047.109.017.037.037.074.058.111.021.037.044.074.07.112.025.037.053.074.082.111s.061.073.096.108c.034.035.071.07.109.103.039.033.08.066.123.096.043.031.089.06.136.087.047.027.097.052.148.075.051.023.104.043.159.061.054.018.11.033.167.045.057.012.115.022.173.028.058.006.117.009.176.009s.118-.003.176-.009c.058-.006.116-.016.173-.028.057-.012.113-.027.167-.045.054-.018.107-.038.159-.061.051-.023.101-.048.148-.075.047-.027.093-.056.136-.087.043-.031.084-.063.123-.096.039-.033.075-.068.109-.103.034-.035.066-.071.096-.108s.057-.074.082-.111c.025-.037.048-.074.07-.112.021-.037.04-.074.058-.111.017-.037.033-.073.047-.109.014-.036.026-.071.037-.106.011-.035.02-.069.028-.103s.015-.067.021-.099c.006-.032.01-.064.014-.094.004-.031.006-.061.008-.09.002-.029.003-.057.003-.085s0-.054,0-.08c0-.026-.002-.051-.004-.076s-.004-.048-.007-.071-.006-.045-.01-.067c-.004-.022-.008-.042-.012-.063-.004-.02-.009-.04-.013-.059-.005-.019-.009-.037-.014-.055s-.01-.035-.015-.052c-.005-.017-.011-.033-.016-.048-.005-.016-.011-.031-.017-.045-.006-.015-.011-.029-.017-.042-.006-.014-.011-.027-.017-.04-.006-.013-.011-.025-.017-.037-.006-.012-.011-.024-.017-.035-.006-.011-.011-.022-.017-.033-.006-.011-.011-.021-.017-.031-.006-.01-.011-.02-.017-.029-.006-.009-.011-.018-.016-.027-.005-.009-.011-.017-.016-.026-.005-.008-.011-.016-.016-.024s-.01-.015-.015-.023-.01-.014-.015-.021-.01-.014-.015-.02c-.005-.007-.01-.013-.014-.019-.005-.006-.009-.012-.014-.018s-.009-.011-.013-.017c-.004-.005-.009-.011-.013-.016s-.008-.01-.013-.015c-.004-.005-.008-.01-.012-.014-.004-.005-.008-.009-.012-.014s-.008-.009-.011-.013c-.004-.004-.007-.008-.011-.012-.004-.004-.007-.008-.011-.011-.003-.004-.007-.007-.01-.011s-.007-.007-.01-.01c-.003-.003-.006-.007-.01-.01s-.006-.006-.009-.009-.006-.006-.009-.009-.006-.006-.009-.008c-.003-.003-.006-.005-.008-.008-.003-.003-.005-.005-.008-.008-.003-.002-.005-.005-.008-.007-.002-.002-.005-.005-.007-.007-.002-.002-.005-.004-.007-.006-.002-.002-.005-.004-.007-.006s-.004-.004-.006-.006c-.002-.002-.004-.004-.006-.006-.002-.002-.004-.004-.006-.005-.002-.002-.004-.003-.006-.005s-.004-.003-.005-.005-.004-.003-.005-.004-.003-.003-.005-.004-.003-.003-.005-.004-.003-.003-.005-.004c-.001-.001-.003-.002-.004-.004s-.003-.002-.004-.003-.003-.002-.004-.003-.003-.002-.004-.003-.002-.002-.004-.003c-.001,0-.002-.002-.003-.003s-.002-.002-.003-.003c-.001,0-.002-.002-.003-.002s-.002-.002-.003-.002-.002-.001-.003-.002-.002-.001-.003-.002c0,0-.002-.001-.002-.002s-.002-.001-.002-.002-.001-.001-.002-.002-.001-.001-.002-.001c0,0-.001,0-.002-.001,0,0-.001,0-.002-.001,0,0,0,0-.001-.001,0,0,0,0-.001-.001,0,0,0,0-.001,0s0,0-.001,0c0,0,0,0,0,0,0,0,0,0,0,0s0,0,0,0c0,0,0,0,0,0h0s0,0,0,0"/>
    <path class="st2" d="M3.574,2.25c0-.064-.011-.126-.029-.187-.018-.062-.048-.122-.087-.18s-.085-.113-.14-.165c-.055-.052-.117-.099-.186-.142-.069-.043-.144-.081-.224-.113-.08-.032-.164-.059-.252-.079-.087-.02-.178-.034-.269-.04-.091-.007-.183-.007-.275,0-.091.007-.181.02-.269.04-.087.02-.172.046-.252.079-.08.032-.155.07-.224.113-.069.043-.131.091-.186.142-.055.052-.101.107-.14.165s-.069.118-.087.18c-.018.062-.029.123-.029.187"/>
    <path class="st2" d="M1.25,2.25c.008-.003.015-.005.033-.011.018-.006.046-.015.079-.025.033-.01.071-.021.115-.031.043-.011.091-.022.143-.033s.107-.021.165-.029c.058-.009.118-.016.18-.022.062-.006.125-.01.189-.012.064-.002.129-.002.193,0,.064.002.128.006.189.012.062.006.122.013.18.022.058.009.113.019.165.029s.1.022.143.033c.043.011.081.022.115.031.033.01.061.019.079.025.018.006.025.008.033.011"/>
    <path class="st2" d="M1.02,2.461c.045.035.09.069.138.096.048.027.098.045.15.061s.105.027.159.036.11.015.166.02c.057.005.114.008.172.01s.117.003.176.004c.059,0,.119.001.178.001s.12,0,.179,0,.119,0,.178-.001c.059,0,.118-.002.176-.004s.116-.005.172-.01c.057-.005.112-.011.166-.02s.107-.021.159-.036.102-.034.15-.061c.048-.027.093-.061.138-.096"/>
    <path class="st2" d="M2.25,5.223c.018-.018.036-.037.053-.055s.034-.037.05-.055c.016-.018.032-.036.046-.055.015-.018.029-.036.043-.054.014-.018.027-.036.04-.053.013-.018.026-.035.038-.053s.024-.035.035-.052c.011-.017.022-.034.033-.051.011-.017.021-.034.03-.05.01-.017.019-.033.028-.05.009-.017.019-.034.029-.054.01-.02.021-.041.033-.065.012-.024.024-.051.037-.081.013-.03.027-.064.043-.103.015-.039.031-.083.048-.134.017-.052.034-.111.051-.181.017-.071.034-.153.049-.254s.025-.22.028-.37-.002-.33-.031-.549c-.029-.219-.082-.476-.015-.746s.253-.551.482-.839.501-.581.778-.876c.277-.294.56-.59.846-.885.286-.296.577-.592.868-.889.291-.296.584-.593.877-.89s.588-.594.882-.891c.295-.297.59-.594.885-.891.295-.297.591-.594.887-.891.296-.297.592-.594.888-.892.296-.297.592-.594.889-.892"/>
    <path class="st2" d="M2.25,5.223c-.018-.018-.036-.037-.053-.055s-.034-.037-.05-.055c-.016-.018-.032-.036-.046-.055-.015-.018-.029-.036-.043-.054-.014-.018-.027-.036-.04-.053-.013-.018-.026-.035-.038-.053s-.024-.035-.035-.052c-.011-.017-.022-.034-.033-.051-.011-.017-.021-.034-.03-.05-.01-.017-.019-.033-.028-.05-.009-.017-.019-.034-.029-.054-.01-.02-.021-.041-.033-.065-.012-.024-.024-.051-.037-.081-.013-.03-.027-.064-.043-.103-.015-.039-.031-.083-.048-.134-.017-.052-.034-.111-.051-.181-.017-.071-.034-.153-.049-.254s-.025-.22-.028-.37.002-.33.031-.549c.029-.219.082-.476.015-.746s-.253-.551-.482-.839S.598.738.321.444C.044.15-.239-.146-.525-.441c-.286-.296-.577-.592-.868-.889-.291-.296-.584-.593-.877-.89s-.588-.594-.882-.891c-.295-.297-.59-.594-.885-.891-.295-.297-.591-.594-.887-.891-.296-.297-.592-.594-.888-.892-.296-.297-.592-.594-.889-.892"/>
  </g>
  <g id="Layer_4">
    <line class="st1" x1="2.25" y1="-.123" x2="2.25" y2="4.927"/>
    <line class="st1" x1="-1.292" y1="2.25" x2="5.377" y2="2.25"/>
    <line class="st0" x1="3.25" y1="2.25" x2="5.377" y2="2.25"/>
    <line class="st0" x1="-1.292" y1="2.25" x2="1.25" y2="2.25"/>
  </g>
</svg>